<mxfile host="app.diagrams.net" modified="2022-05-17T15:36:26.358Z" agent="5.0 (Windows NT 10.0; Win64; x64) AppleWebKit/537.36 (KHTML, like Gecko) Chrome/101.0.4951.67 Safari/537.36" etag="BfAuvmynCZ52zS9-fksZ" version="18.0.6" type="github" pages="4">
  <diagram id="Isilk61riJuk_3efRaKQ" name="a)">
    <mxGraphModel dx="631" dy="426" grid="1" gridSize="10" guides="1" tooltips="1" connect="1" arrows="1" fold="1" page="1" pageScale="1" pageWidth="827" pageHeight="1169" math="0" shadow="0">
      <root>
        <mxCell id="0" />
        <mxCell id="1" parent="0" />
        <mxCell id="wDFAwCBo_EpdB7z5CxXP-26" value="Grabungsstätte" style="rounded=0;whiteSpace=wrap;html=1;sketch=0;fontSize=8;fillColor=#FFFFFF;" vertex="1" parent="1">
          <mxGeometry x="40" y="160" width="120" height="40" as="geometry" />
        </mxCell>
        <mxCell id="wDFAwCBo_EpdB7z5CxXP-27" value="Gemeinde" style="rounded=0;whiteSpace=wrap;html=1;sketch=0;fontSize=8;fillColor=#FFFFFF;" vertex="1" parent="1">
          <mxGeometry x="360" y="160" width="120" height="40" as="geometry" />
        </mxCell>
        <mxCell id="wDFAwCBo_EpdB7z5CxXP-28" value="liegt_in" style="rhombus;whiteSpace=wrap;html=1;rounded=0;sketch=0;fontSize=8;fillColor=#FFFFFF;" vertex="1" parent="1">
          <mxGeometry x="200" y="160" width="120" height="40" as="geometry" />
        </mxCell>
        <mxCell id="wDFAwCBo_EpdB7z5CxXP-30" value="(1,n)" style="endArrow=none;html=1;rounded=1;sketch=0;fontSize=8;curved=0;entryX=0;entryY=0.5;entryDx=0;entryDy=0;exitX=1;exitY=0.5;exitDx=0;exitDy=0;" edge="1" parent="1" source="wDFAwCBo_EpdB7z5CxXP-26" target="wDFAwCBo_EpdB7z5CxXP-28">
          <mxGeometry y="10" width="50" height="50" relative="1" as="geometry">
            <mxPoint x="110" y="270" as="sourcePoint" />
            <mxPoint x="160" y="220" as="targetPoint" />
            <mxPoint as="offset" />
          </mxGeometry>
        </mxCell>
        <mxCell id="wDFAwCBo_EpdB7z5CxXP-32" value="" style="group;fillColor=default;" vertex="1" connectable="0" parent="1">
          <mxGeometry x="60" y="120" width="10" height="40" as="geometry" />
        </mxCell>
        <mxCell id="wDFAwCBo_EpdB7z5CxXP-33" value="" style="ellipse;whiteSpace=wrap;html=1;aspect=fixed;rounded=0;sketch=0;fillColor=#000000;" vertex="1" parent="wDFAwCBo_EpdB7z5CxXP-32">
          <mxGeometry width="10" height="10" as="geometry" />
        </mxCell>
        <mxCell id="wDFAwCBo_EpdB7z5CxXP-34" value="Name" style="endArrow=none;html=1;rounded=1;sketch=0;curved=0;entryX=0.5;entryY=1;entryDx=0;entryDy=0;fontSize=8;" edge="1" parent="wDFAwCBo_EpdB7z5CxXP-32" target="wDFAwCBo_EpdB7z5CxXP-33">
          <mxGeometry x="1" y="20" width="50" height="50" relative="1" as="geometry">
            <mxPoint x="5" y="40" as="sourcePoint" />
            <mxPoint x="40" y="20" as="targetPoint" />
            <mxPoint x="20" y="-20" as="offset" />
          </mxGeometry>
        </mxCell>
        <mxCell id="wDFAwCBo_EpdB7z5CxXP-31" value="(0,n)" style="endArrow=none;html=1;rounded=1;sketch=0;fontSize=8;curved=0;entryX=0;entryY=0.5;entryDx=0;entryDy=0;exitX=1;exitY=0.5;exitDx=0;exitDy=0;" edge="1" parent="1" source="wDFAwCBo_EpdB7z5CxXP-28" target="wDFAwCBo_EpdB7z5CxXP-27">
          <mxGeometry y="10" width="50" height="50" relative="1" as="geometry">
            <mxPoint x="110" y="270" as="sourcePoint" />
            <mxPoint x="160" y="220" as="targetPoint" />
            <mxPoint as="offset" />
          </mxGeometry>
        </mxCell>
        <mxCell id="wDFAwCBo_EpdB7z5CxXP-35" value="" style="group" vertex="1" connectable="0" parent="1">
          <mxGeometry x="100" y="120" width="10" height="40" as="geometry" />
        </mxCell>
        <mxCell id="wDFAwCBo_EpdB7z5CxXP-36" value="" style="ellipse;whiteSpace=wrap;html=1;aspect=fixed;rounded=0;sketch=0;" vertex="1" parent="1">
          <mxGeometry x="120" y="120" width="10" height="10" as="geometry" />
        </mxCell>
        <mxCell id="wDFAwCBo_EpdB7z5CxXP-37" value="Grabungsleitung" style="endArrow=none;html=1;rounded=1;sketch=0;curved=0;entryX=0.5;entryY=1;entryDx=0;entryDy=0;fontSize=8;exitX=0.71;exitY=-0.005;exitDx=0;exitDy=0;exitPerimeter=0;" edge="1" parent="1" target="wDFAwCBo_EpdB7z5CxXP-36" source="wDFAwCBo_EpdB7z5CxXP-26">
          <mxGeometry x="1" y="20" width="50" height="50" relative="1" as="geometry">
            <mxPoint x="105" y="160" as="sourcePoint" />
            <mxPoint x="140" y="140" as="targetPoint" />
            <mxPoint x="20" y="-20" as="offset" />
          </mxGeometry>
        </mxCell>
        <mxCell id="wDFAwCBo_EpdB7z5CxXP-45" value="" style="group" vertex="1" connectable="0" parent="1">
          <mxGeometry x="380" y="120" width="10" height="40" as="geometry" />
        </mxCell>
        <mxCell id="wDFAwCBo_EpdB7z5CxXP-46" value="" style="ellipse;whiteSpace=wrap;html=1;aspect=fixed;rounded=0;sketch=0;fillColor=#000000;" vertex="1" parent="wDFAwCBo_EpdB7z5CxXP-45">
          <mxGeometry width="10" height="10" as="geometry" />
        </mxCell>
        <mxCell id="wDFAwCBo_EpdB7z5CxXP-47" value="" style="endArrow=none;html=1;rounded=1;sketch=0;curved=0;entryX=0.5;entryY=1;entryDx=0;entryDy=0;" edge="1" parent="wDFAwCBo_EpdB7z5CxXP-45" target="wDFAwCBo_EpdB7z5CxXP-46">
          <mxGeometry width="50" height="50" relative="1" as="geometry">
            <mxPoint x="5" y="40" as="sourcePoint" />
            <mxPoint x="40" y="20" as="targetPoint" />
          </mxGeometry>
        </mxCell>
        <mxCell id="wDFAwCBo_EpdB7z5CxXP-49" value="AGS" style="text;html=1;strokeColor=none;fillColor=none;align=center;verticalAlign=middle;whiteSpace=wrap;rounded=0;sketch=0;fontSize=8;" vertex="1" parent="1">
          <mxGeometry x="355" y="90" width="60" height="30" as="geometry" />
        </mxCell>
      </root>
    </mxGraphModel>
  </diagram>
  <diagram id="e6XcfzrVYUrC9JLfJSwB" name="b)">
    <mxGraphModel dx="1104" dy="745" grid="1" gridSize="10" guides="1" tooltips="1" connect="1" arrows="1" fold="1" page="1" pageScale="1" pageWidth="827" pageHeight="1169" math="0" shadow="0">
      <root>
        <mxCell id="0" />
        <mxCell id="1" parent="0" />
        <mxCell id="P5Ney5xTaXpBe97XnC4I-1" value="&lt;font style=&quot;font-size: 12px;&quot;&gt;Befund&lt;/font&gt;" style="rounded=0;whiteSpace=wrap;html=1;sketch=0;fontSize=8;fillColor=#FFFFFF;" vertex="1" parent="1">
          <mxGeometry x="440" y="160" width="120" height="40" as="geometry" />
        </mxCell>
        <mxCell id="P5Ney5xTaXpBe97XnC4I-2" value="eingeordnet_in" style="rhombus;whiteSpace=wrap;html=1;rounded=0;sketch=0;fontSize=12;fillColor=#FFFFFF;" vertex="1" parent="1">
          <mxGeometry x="440" y="280" width="120" height="80" as="geometry" />
        </mxCell>
        <mxCell id="P5Ney5xTaXpBe97XnC4I-3" value="" style="endArrow=none;html=1;rounded=1;sketch=0;fontSize=12;curved=0;entryX=0.25;entryY=1;entryDx=0;entryDy=0;exitX=0;exitY=0.5;exitDx=0;exitDy=0;" edge="1" parent="1" source="P5Ney5xTaXpBe97XnC4I-2" target="P5Ney5xTaXpBe97XnC4I-1">
          <mxGeometry width="50" height="50" relative="1" as="geometry">
            <mxPoint x="550" y="410" as="sourcePoint" />
            <mxPoint x="600" y="360" as="targetPoint" />
          </mxGeometry>
        </mxCell>
        <mxCell id="P5Ney5xTaXpBe97XnC4I-5" value="(0,1)" style="edgeLabel;html=1;align=center;verticalAlign=middle;resizable=0;points=[];fontSize=12;" vertex="1" connectable="0" parent="P5Ney5xTaXpBe97XnC4I-3">
          <mxGeometry x="0.2706" y="-1" relative="1" as="geometry">
            <mxPoint as="offset" />
          </mxGeometry>
        </mxCell>
        <mxCell id="P5Ney5xTaXpBe97XnC4I-4" value="" style="endArrow=none;html=1;rounded=1;sketch=0;fontSize=12;curved=0;entryX=0.75;entryY=1;entryDx=0;entryDy=0;exitX=1;exitY=0.5;exitDx=0;exitDy=0;" edge="1" parent="1" source="P5Ney5xTaXpBe97XnC4I-2" target="P5Ney5xTaXpBe97XnC4I-1">
          <mxGeometry width="50" height="50" relative="1" as="geometry">
            <mxPoint x="550" y="410" as="sourcePoint" />
            <mxPoint x="600" y="360" as="targetPoint" />
          </mxGeometry>
        </mxCell>
        <mxCell id="P5Ney5xTaXpBe97XnC4I-6" value="(0,n)" style="edgeLabel;html=1;align=center;verticalAlign=middle;resizable=0;points=[];fontSize=12;" vertex="1" connectable="0" parent="P5Ney5xTaXpBe97XnC4I-4">
          <mxGeometry x="0.2353" relative="1" as="geometry">
            <mxPoint x="-1" as="offset" />
          </mxGeometry>
        </mxCell>
        <mxCell id="P5Ney5xTaXpBe97XnC4I-7" value="" style="group" vertex="1" connectable="0" parent="1">
          <mxGeometry x="480" y="120" width="10" height="40" as="geometry" />
        </mxCell>
        <mxCell id="P5Ney5xTaXpBe97XnC4I-8" value="" style="ellipse;whiteSpace=wrap;html=1;aspect=fixed;rounded=0;sketch=0;" vertex="1" parent="P5Ney5xTaXpBe97XnC4I-7">
          <mxGeometry width="10" height="10" as="geometry" />
        </mxCell>
        <mxCell id="P5Ney5xTaXpBe97XnC4I-9" value="" style="endArrow=none;html=1;rounded=1;sketch=0;curved=0;entryX=0.5;entryY=1;entryDx=0;entryDy=0;" edge="1" parent="P5Ney5xTaXpBe97XnC4I-7" target="P5Ney5xTaXpBe97XnC4I-8">
          <mxGeometry width="50" height="50" relative="1" as="geometry">
            <mxPoint x="5" y="40" as="sourcePoint" />
            <mxPoint x="40" y="20" as="targetPoint" />
          </mxGeometry>
        </mxCell>
        <mxCell id="P5Ney5xTaXpBe97XnC4I-11" value="Kontext" style="text;html=1;strokeColor=none;fillColor=none;align=center;verticalAlign=middle;whiteSpace=wrap;rounded=0;sketch=0;fontSize=12;" vertex="1" parent="1">
          <mxGeometry x="455" y="90" width="60" height="30" as="geometry" />
        </mxCell>
        <mxCell id="P5Ney5xTaXpBe97XnC4I-12" value="Grabungsstätte" style="rounded=0;whiteSpace=wrap;html=1;sketch=0;fontSize=12;fillColor=#FFFFFF;" vertex="1" parent="1">
          <mxGeometry x="80" y="160" width="120" height="40" as="geometry" />
        </mxCell>
        <mxCell id="P5Ney5xTaXpBe97XnC4I-13" value="eingeteilt_in" style="rhombus;whiteSpace=wrap;html=1;rounded=0;sketch=0;fontSize=12;fillColor=#FFFFFF;" vertex="1" parent="1">
          <mxGeometry x="270" y="160" width="80" height="40" as="geometry" />
        </mxCell>
        <mxCell id="P5Ney5xTaXpBe97XnC4I-14" value="(0,n)" style="endArrow=none;html=1;rounded=1;sketch=0;fontSize=12;curved=0;exitX=1;exitY=0.5;exitDx=0;exitDy=0;entryX=0;entryY=0.5;entryDx=0;entryDy=0;" edge="1" parent="1" source="P5Ney5xTaXpBe97XnC4I-12" target="P5Ney5xTaXpBe97XnC4I-13">
          <mxGeometry x="-0.1429" y="10" width="50" height="50" relative="1" as="geometry">
            <mxPoint x="260" y="330" as="sourcePoint" />
            <mxPoint x="310" y="280" as="targetPoint" />
            <mxPoint as="offset" />
          </mxGeometry>
        </mxCell>
        <mxCell id="P5Ney5xTaXpBe97XnC4I-15" value="(1,1)" style="endArrow=none;html=1;rounded=1;sketch=0;fontSize=12;curved=0;entryX=0;entryY=0.5;entryDx=0;entryDy=0;exitX=1;exitY=0.5;exitDx=0;exitDy=0;" edge="1" parent="1" source="P5Ney5xTaXpBe97XnC4I-13" target="P5Ney5xTaXpBe97XnC4I-1">
          <mxGeometry x="0.1111" y="10" width="50" height="50" relative="1" as="geometry">
            <mxPoint x="260" y="330" as="sourcePoint" />
            <mxPoint x="310" y="280" as="targetPoint" />
            <mxPoint as="offset" />
          </mxGeometry>
        </mxCell>
      </root>
    </mxGraphModel>
  </diagram>
  <diagram id="re__wO6wbmrBV1JRbMnU" name="c)">
    <mxGraphModel dx="1104" dy="745" grid="1" gridSize="10" guides="1" tooltips="1" connect="1" arrows="1" fold="1" page="1" pageScale="1" pageWidth="827" pageHeight="1169" math="0" shadow="0">
      <root>
        <mxCell id="0" />
        <mxCell id="1" parent="0" />
        <mxCell id="koBZl5PBAnyBzW-WRGwM-1" value="Fund" style="rounded=0;whiteSpace=wrap;html=1;sketch=0;fontSize=12;fillColor=#FFFFFF;" vertex="1" parent="1">
          <mxGeometry x="360" y="120" width="80" height="40" as="geometry" />
        </mxCell>
        <mxCell id="koBZl5PBAnyBzW-WRGwM-5" value="Befund" style="rounded=0;whiteSpace=wrap;html=1;sketch=0;fontSize=12;fillColor=#FFFFFF;" vertex="1" parent="1">
          <mxGeometry x="40" y="120" width="80" height="40" as="geometry" />
        </mxCell>
        <mxCell id="koBZl5PBAnyBzW-WRGwM-6" value="Person" style="rounded=0;whiteSpace=wrap;html=1;sketch=0;fontSize=12;fillColor=#FFFFFF;" vertex="1" parent="1">
          <mxGeometry x="640" y="120" width="80" height="40" as="geometry" />
        </mxCell>
        <mxCell id="koBZl5PBAnyBzW-WRGwM-7" value="gefunden_in" style="rhombus;whiteSpace=wrap;html=1;rounded=0;sketch=0;fontSize=12;fillColor=#FFFFFF;" vertex="1" parent="1">
          <mxGeometry x="200" y="120" width="80" height="40" as="geometry" />
        </mxCell>
        <mxCell id="koBZl5PBAnyBzW-WRGwM-9" value="beteiligt" style="rhombus;whiteSpace=wrap;html=1;rounded=0;sketch=0;fontSize=12;fillColor=#FFFFFF;" vertex="1" parent="1">
          <mxGeometry x="500" y="120" width="80" height="40" as="geometry" />
        </mxCell>
        <mxCell id="koBZl5PBAnyBzW-WRGwM-10" value="" style="endArrow=none;html=1;rounded=1;sketch=0;fontSize=12;curved=0;entryX=0;entryY=0.5;entryDx=0;entryDy=0;exitX=1;exitY=0.5;exitDx=0;exitDy=0;" edge="1" parent="1" source="koBZl5PBAnyBzW-WRGwM-7" target="koBZl5PBAnyBzW-WRGwM-1">
          <mxGeometry width="50" height="50" relative="1" as="geometry">
            <mxPoint x="390" y="410" as="sourcePoint" />
            <mxPoint x="440" y="360" as="targetPoint" />
          </mxGeometry>
        </mxCell>
        <mxCell id="koBZl5PBAnyBzW-WRGwM-14" value="(1,1)" style="edgeLabel;html=1;align=center;verticalAlign=middle;resizable=0;points=[];fontSize=12;" vertex="1" connectable="0" parent="koBZl5PBAnyBzW-WRGwM-10">
          <mxGeometry x="0.35" y="1" relative="1" as="geometry">
            <mxPoint x="-14" y="-9" as="offset" />
          </mxGeometry>
        </mxCell>
        <mxCell id="koBZl5PBAnyBzW-WRGwM-15" value="(0,n)" style="endArrow=none;html=1;rounded=1;sketch=0;fontSize=12;curved=0;entryX=0;entryY=0.5;entryDx=0;entryDy=0;exitX=1;exitY=0.5;exitDx=0;exitDy=0;" edge="1" parent="1" source="koBZl5PBAnyBzW-WRGwM-5" target="koBZl5PBAnyBzW-WRGwM-7">
          <mxGeometry y="10" width="50" height="50" relative="1" as="geometry">
            <mxPoint x="390" y="410" as="sourcePoint" />
            <mxPoint x="440" y="360" as="targetPoint" />
            <mxPoint as="offset" />
          </mxGeometry>
        </mxCell>
        <mxCell id="o3Qftsyq15_QHEIRzHX7-2" value="(0,n)" style="endArrow=none;html=1;rounded=1;sketch=0;fontSize=12;curved=0;entryX=0;entryY=0.5;entryDx=0;entryDy=0;exitX=1;exitY=0.5;exitDx=0;exitDy=0;" edge="1" parent="1" source="koBZl5PBAnyBzW-WRGwM-9" target="koBZl5PBAnyBzW-WRGwM-6">
          <mxGeometry y="10" width="50" height="50" relative="1" as="geometry">
            <mxPoint x="390" y="360" as="sourcePoint" />
            <mxPoint x="440" y="310" as="targetPoint" />
            <mxPoint as="offset" />
          </mxGeometry>
        </mxCell>
        <mxCell id="o3Qftsyq15_QHEIRzHX7-3" value="(1,n)" style="endArrow=none;html=1;rounded=1;sketch=0;fontSize=12;curved=0;entryX=0;entryY=0.5;entryDx=0;entryDy=0;exitX=1;exitY=0.5;exitDx=0;exitDy=0;" edge="1" parent="1" source="koBZl5PBAnyBzW-WRGwM-1" target="koBZl5PBAnyBzW-WRGwM-9">
          <mxGeometry y="10" width="50" height="50" relative="1" as="geometry">
            <mxPoint x="390" y="360" as="sourcePoint" />
            <mxPoint x="440" y="310" as="targetPoint" />
            <mxPoint as="offset" />
          </mxGeometry>
        </mxCell>
        <mxCell id="o3Qftsyq15_QHEIRzHX7-4" value="" style="group" vertex="1" connectable="0" parent="1">
          <mxGeometry x="370" y="80" width="10" height="40" as="geometry" />
        </mxCell>
        <mxCell id="o3Qftsyq15_QHEIRzHX7-5" value="" style="ellipse;whiteSpace=wrap;html=1;aspect=fixed;rounded=0;sketch=0;fillColor=#000000;" vertex="1" parent="o3Qftsyq15_QHEIRzHX7-4">
          <mxGeometry width="10" height="10" as="geometry" />
        </mxCell>
        <mxCell id="o3Qftsyq15_QHEIRzHX7-6" value="" style="endArrow=none;html=1;rounded=1;sketch=0;curved=0;entryX=0.5;entryY=1;entryDx=0;entryDy=0;" edge="1" parent="o3Qftsyq15_QHEIRzHX7-4" target="o3Qftsyq15_QHEIRzHX7-5">
          <mxGeometry width="50" height="50" relative="1" as="geometry">
            <mxPoint x="5" y="40" as="sourcePoint" />
            <mxPoint x="40" y="20" as="targetPoint" />
          </mxGeometry>
        </mxCell>
        <mxCell id="o3Qftsyq15_QHEIRzHX7-8" value="Fundnummer" style="text;html=1;strokeColor=none;fillColor=none;align=center;verticalAlign=middle;whiteSpace=wrap;rounded=0;sketch=0;fontSize=12;" vertex="1" parent="1">
          <mxGeometry x="345" y="50" width="60" height="30" as="geometry" />
        </mxCell>
        <mxCell id="o3Qftsyq15_QHEIRzHX7-9" value="" style="group" vertex="1" connectable="0" parent="1">
          <mxGeometry x="420" y="80" width="10" height="40" as="geometry" />
        </mxCell>
        <mxCell id="o3Qftsyq15_QHEIRzHX7-10" value="" style="ellipse;whiteSpace=wrap;html=1;aspect=fixed;rounded=0;sketch=0;" vertex="1" parent="o3Qftsyq15_QHEIRzHX7-9">
          <mxGeometry width="10" height="10" as="geometry" />
        </mxCell>
        <mxCell id="o3Qftsyq15_QHEIRzHX7-11" value="" style="endArrow=none;html=1;rounded=1;sketch=0;curved=0;entryX=0.5;entryY=1;entryDx=0;entryDy=0;" edge="1" parent="o3Qftsyq15_QHEIRzHX7-9" target="o3Qftsyq15_QHEIRzHX7-10">
          <mxGeometry width="50" height="50" relative="1" as="geometry">
            <mxPoint x="5" y="40" as="sourcePoint" />
            <mxPoint x="40" y="20" as="targetPoint" />
          </mxGeometry>
        </mxCell>
        <mxCell id="o3Qftsyq15_QHEIRzHX7-12" value="Zeitpunkt" style="text;html=1;strokeColor=none;fillColor=none;align=center;verticalAlign=middle;whiteSpace=wrap;rounded=0;sketch=0;fontSize=12;" vertex="1" parent="1">
          <mxGeometry x="395" y="60" width="60" height="30" as="geometry" />
        </mxCell>
        <mxCell id="o3Qftsyq15_QHEIRzHX7-18" value="" style="endArrow=none;html=1;rounded=1;sketch=0;curved=0;exitX=0.5;exitY=1;exitDx=0;exitDy=0;" edge="1" parent="1" source="koBZl5PBAnyBzW-WRGwM-1">
          <mxGeometry width="50" height="50" relative="1" as="geometry">
            <mxPoint x="585" y="70" as="sourcePoint" />
            <mxPoint x="400" y="220" as="targetPoint" />
          </mxGeometry>
        </mxCell>
        <mxCell id="o3Qftsyq15_QHEIRzHX7-17" value="" style="ellipse;whiteSpace=wrap;html=1;aspect=fixed;rounded=0;sketch=0;" vertex="1" parent="1">
          <mxGeometry x="395" y="220" width="10" height="10" as="geometry" />
        </mxCell>
        <mxCell id="o3Qftsyq15_QHEIRzHX7-20" value="Beschreibung" style="text;html=1;strokeColor=none;fillColor=none;align=center;verticalAlign=middle;whiteSpace=wrap;rounded=0;sketch=0;fontSize=12;" vertex="1" parent="1">
          <mxGeometry x="370" y="220" width="60" height="30" as="geometry" />
        </mxCell>
        <mxCell id="o3Qftsyq15_QHEIRzHX7-26" value="" style="group" vertex="1" connectable="0" parent="1">
          <mxGeometry x="235" y="80" width="10" height="40" as="geometry" />
        </mxCell>
        <mxCell id="o3Qftsyq15_QHEIRzHX7-27" value="" style="ellipse;whiteSpace=wrap;html=1;aspect=fixed;rounded=0;sketch=0;" vertex="1" parent="o3Qftsyq15_QHEIRzHX7-26">
          <mxGeometry width="10" height="10" as="geometry" />
        </mxCell>
        <mxCell id="o3Qftsyq15_QHEIRzHX7-28" value="" style="endArrow=none;html=1;rounded=1;sketch=0;curved=0;entryX=0.5;entryY=1;entryDx=0;entryDy=0;" edge="1" parent="o3Qftsyq15_QHEIRzHX7-26" target="o3Qftsyq15_QHEIRzHX7-27">
          <mxGeometry width="50" height="50" relative="1" as="geometry">
            <mxPoint x="5" y="40" as="sourcePoint" />
            <mxPoint x="40" y="20" as="targetPoint" />
          </mxGeometry>
        </mxCell>
        <mxCell id="o3Qftsyq15_QHEIRzHX7-29" value="Lage" style="text;html=1;strokeColor=none;fillColor=none;align=center;verticalAlign=middle;whiteSpace=wrap;rounded=0;sketch=0;fontSize=12;" vertex="1" parent="1">
          <mxGeometry x="210" y="50" width="60" height="30" as="geometry" />
        </mxCell>
      </root>
    </mxGraphModel>
  </diagram>
  <diagram id="ePhKZ8z0kClIrwKeH5vd" name="d)">
    <mxGraphModel dx="1104" dy="745" grid="1" gridSize="10" guides="1" tooltips="1" connect="1" arrows="1" fold="1" page="1" pageScale="1" pageWidth="827" pageHeight="1169" math="0" shadow="0">
      <root>
        <mxCell id="0" />
        <mxCell id="1" parent="0" />
        <mxCell id="Gliy-koTwRLue0TeqMmE-1" value="Fund" style="rounded=0;whiteSpace=wrap;html=1;sketch=0;fontSize=12;fillColor=#FFFFFF;" vertex="1" parent="1">
          <mxGeometry x="120" y="120" width="80" height="40" as="geometry" />
        </mxCell>
        <mxCell id="Gliy-koTwRLue0TeqMmE-2" value="Fundzettel" style="rounded=0;whiteSpace=wrap;html=1;sketch=0;fontSize=12;fillColor=#FFFFFF;" vertex="1" parent="1">
          <mxGeometry x="440" y="120" width="80" height="40" as="geometry" />
        </mxCell>
        <mxCell id="Gliy-koTwRLue0TeqMmE-3" value="melden_von" style="rhombus;whiteSpace=wrap;html=1;rounded=0;sketch=0;fontSize=12;fillColor=#FFFFFF;" vertex="1" parent="1">
          <mxGeometry x="260" y="120" width="120" height="40" as="geometry" />
        </mxCell>
        <mxCell id="Gliy-koTwRLue0TeqMmE-4" value="(1,1)" style="endArrow=none;html=1;rounded=1;sketch=0;fontSize=12;curved=0;entryX=0;entryY=0.5;entryDx=0;entryDy=0;exitX=1;exitY=0.5;exitDx=0;exitDy=0;" edge="1" parent="1" source="Gliy-koTwRLue0TeqMmE-1" target="Gliy-koTwRLue0TeqMmE-3">
          <mxGeometry y="10" width="50" height="50" relative="1" as="geometry">
            <mxPoint x="390" y="410" as="sourcePoint" />
            <mxPoint x="440" y="360" as="targetPoint" />
            <mxPoint as="offset" />
          </mxGeometry>
        </mxCell>
        <mxCell id="Gliy-koTwRLue0TeqMmE-5" value="(0,n)" style="endArrow=none;html=1;rounded=1;sketch=0;fontSize=12;curved=0;entryX=0;entryY=0.5;entryDx=0;entryDy=0;exitX=1;exitY=0.5;exitDx=0;exitDy=0;" edge="1" parent="1" source="Gliy-koTwRLue0TeqMmE-3" target="Gliy-koTwRLue0TeqMmE-2">
          <mxGeometry y="10" width="50" height="50" relative="1" as="geometry">
            <mxPoint x="390" y="410" as="sourcePoint" />
            <mxPoint x="440" y="360" as="targetPoint" />
            <mxPoint as="offset" />
          </mxGeometry>
        </mxCell>
        <mxCell id="Gliy-koTwRLue0TeqMmE-11" value="" style="group" vertex="1" connectable="0" parent="1">
          <mxGeometry x="315" y="80" width="10" height="40" as="geometry" />
        </mxCell>
        <mxCell id="Gliy-koTwRLue0TeqMmE-12" value="" style="ellipse;whiteSpace=wrap;html=1;aspect=fixed;rounded=0;sketch=0;" vertex="1" parent="Gliy-koTwRLue0TeqMmE-11">
          <mxGeometry width="10" height="10" as="geometry" />
        </mxCell>
        <mxCell id="Gliy-koTwRLue0TeqMmE-13" value="" style="endArrow=none;html=1;rounded=1;sketch=0;curved=0;entryX=0.5;entryY=1;entryDx=0;entryDy=0;" edge="1" parent="Gliy-koTwRLue0TeqMmE-11" target="Gliy-koTwRLue0TeqMmE-12">
          <mxGeometry width="50" height="50" relative="1" as="geometry">
            <mxPoint x="5" y="40" as="sourcePoint" />
            <mxPoint x="40" y="20" as="targetPoint" />
          </mxGeometry>
        </mxCell>
        <mxCell id="Gliy-koTwRLue0TeqMmE-14" value="Amt" style="text;html=1;strokeColor=none;fillColor=none;align=center;verticalAlign=middle;whiteSpace=wrap;rounded=0;sketch=0;fontSize=12;" vertex="1" parent="1">
          <mxGeometry x="290" y="50" width="60" height="30" as="geometry" />
        </mxCell>
        <mxCell id="Gliy-koTwRLue0TeqMmE-15" value="" style="group" vertex="1" connectable="0" parent="1">
          <mxGeometry x="450" y="80" width="10" height="40" as="geometry" />
        </mxCell>
        <mxCell id="Gliy-koTwRLue0TeqMmE-16" value="" style="ellipse;whiteSpace=wrap;html=1;aspect=fixed;rounded=0;sketch=0;fillColor=#000000;" vertex="1" parent="Gliy-koTwRLue0TeqMmE-15">
          <mxGeometry width="10" height="10" as="geometry" />
        </mxCell>
        <mxCell id="Gliy-koTwRLue0TeqMmE-17" value="" style="endArrow=none;html=1;rounded=1;sketch=0;curved=0;entryX=0.5;entryY=1;entryDx=0;entryDy=0;" edge="1" parent="Gliy-koTwRLue0TeqMmE-15" target="Gliy-koTwRLue0TeqMmE-16">
          <mxGeometry width="50" height="50" relative="1" as="geometry">
            <mxPoint x="5" y="40" as="sourcePoint" />
            <mxPoint x="40" y="20" as="targetPoint" />
          </mxGeometry>
        </mxCell>
        <mxCell id="Gliy-koTwRLue0TeqMmE-18" value="Fundzettelnummer" style="text;html=1;strokeColor=none;fillColor=none;align=center;verticalAlign=middle;whiteSpace=wrap;rounded=0;sketch=0;fontSize=12;" vertex="1" parent="1">
          <mxGeometry x="425" y="50" width="60" height="30" as="geometry" />
        </mxCell>
        <mxCell id="Gliy-koTwRLue0TeqMmE-19" value="" style="group" vertex="1" connectable="0" parent="1">
          <mxGeometry x="485" y="80" width="25" height="40" as="geometry" />
        </mxCell>
        <mxCell id="Gliy-koTwRLue0TeqMmE-20" value="" style="ellipse;whiteSpace=wrap;html=1;aspect=fixed;rounded=0;sketch=0;" vertex="1" parent="Gliy-koTwRLue0TeqMmE-19">
          <mxGeometry width="10" height="10" as="geometry" />
        </mxCell>
        <mxCell id="Gliy-koTwRLue0TeqMmE-21" value="" style="endArrow=none;html=1;rounded=1;sketch=0;curved=0;entryX=0.5;entryY=1;entryDx=0;entryDy=0;" edge="1" parent="Gliy-koTwRLue0TeqMmE-19" target="Gliy-koTwRLue0TeqMmE-20">
          <mxGeometry width="50" height="50" relative="1" as="geometry">
            <mxPoint x="5" y="40" as="sourcePoint" />
            <mxPoint x="40" y="20" as="targetPoint" />
          </mxGeometry>
        </mxCell>
        <mxCell id="Gliy-koTwRLue0TeqMmE-26" value="Befund" style="text;html=1;strokeColor=none;fillColor=none;align=center;verticalAlign=middle;whiteSpace=wrap;rounded=0;sketch=0;fontSize=12;" vertex="1" parent="Gliy-koTwRLue0TeqMmE-19">
          <mxGeometry x="-35" y="10" width="60" height="30" as="geometry" />
        </mxCell>
        <mxCell id="Gliy-koTwRLue0TeqMmE-22" value="" style="group" vertex="1" connectable="0" parent="1">
          <mxGeometry x="510" y="80" width="10" height="40" as="geometry" />
        </mxCell>
        <mxCell id="Gliy-koTwRLue0TeqMmE-23" value="" style="ellipse;whiteSpace=wrap;html=1;aspect=fixed;rounded=0;sketch=0;" vertex="1" parent="Gliy-koTwRLue0TeqMmE-22">
          <mxGeometry width="10" height="10" as="geometry" />
        </mxCell>
        <mxCell id="Gliy-koTwRLue0TeqMmE-24" value="" style="endArrow=none;html=1;rounded=1;sketch=0;curved=0;entryX=0.5;entryY=1;entryDx=0;entryDy=0;" edge="1" parent="Gliy-koTwRLue0TeqMmE-22" target="Gliy-koTwRLue0TeqMmE-23">
          <mxGeometry width="50" height="50" relative="1" as="geometry">
            <mxPoint x="5" y="40" as="sourcePoint" />
            <mxPoint x="40" y="20" as="targetPoint" />
          </mxGeometry>
        </mxCell>
        <mxCell id="Gliy-koTwRLue0TeqMmE-25" value="Grabungsstätte" style="text;html=1;strokeColor=none;fillColor=none;align=center;verticalAlign=middle;whiteSpace=wrap;rounded=0;sketch=0;fontSize=12;" vertex="1" parent="1">
          <mxGeometry x="520" y="85" width="60" height="30" as="geometry" />
        </mxCell>
      </root>
    </mxGraphModel>
  </diagram>
</mxfile>
